<?xml version="1.0" encoding="UTF-8" standalone="no"?>
<!-- Created with Inkscape (http://www.inkscape.org/) -->

<svg
   xmlns:dc="http://purl.org/dc/elements/1.1/"
   xmlns:cc="http://creativecommons.org/ns#"
   xmlns:rdf="http://www.w3.org/1999/02/22-rdf-syntax-ns#"
   xmlns:svg="http://www.w3.org/2000/svg"
   xmlns="http://www.w3.org/2000/svg"
   xmlns:sodipodi="http://sodipodi.sourceforge.net/DTD/sodipodi-0.dtd"
   xmlns:inkscape="http://www.inkscape.org/namespaces/inkscape"
   width="56.424522mm"
   height="85.086319mm"
   viewBox="0 0 56.424522 85.086319"
   version="1.1"
   id="svg8"
   inkscape:version="0.92.3 (2405546, 2018-03-11)"
   sodipodi:docname="pieces.svg"
   inkscape:export-filename="C:\Users\Ian_Anthony\Dropbox\Projects\Programming\Chess background\q.png"
   inkscape:export-xdpi="28.421732"
   inkscape:export-ydpi="28.421732">
  <defs
     id="defs2" />
  <sodipodi:namedview
     id="base"
     pagecolor="#ffffff"
     bordercolor="#666666"
     borderopacity="1.0"
     inkscape:pageopacity="0.0"
     inkscape:pageshadow="2"
     inkscape:zoom="2.8"
     inkscape:cx="76.842004"
     inkscape:cy="153.05094"
     inkscape:document-units="mm"
     inkscape:current-layer="layer1"
     showgrid="false"
     inkscape:window-width="3840"
     inkscape:window-height="2070"
     inkscape:window-x="-11"
     inkscape:window-y="-11"
     inkscape:window-maximized="1"
     inkscape:snap-bbox="true"
     inkscape:bbox-paths="true"
     inkscape:bbox-nodes="true"
     inkscape:snap-bbox-midpoints="true"
     inkscape:snap-bbox-edge-midpoints="true"
     inkscape:object-paths="true"
     inkscape:snap-intersection-paths="true"
     inkscape:snap-smooth-nodes="true"
     inkscape:snap-midpoints="true"
     inkscape:snap-object-midpoints="true"
     inkscape:snap-center="true"
     inkscape:snap-text-baseline="true"
     showguides="true"
     inkscape:guide-bbox="true"
     inkscape:snap-global="true"
     fit-margin-top="0"
     fit-margin-left="0"
     fit-margin-right="0"
     fit-margin-bottom="0">
    <sodipodi:guide
       position="13.588995,86.141939"
       orientation="1,0"
       id="guide4658"
       inkscape:locked="false" />
    <sodipodi:guide
       position="57.014934,42.71601"
       orientation="0,1"
       id="guide4660"
       inkscape:locked="false" />
    <sodipodi:guide
       position="57.014934,13.589001"
       orientation="0,1"
       id="guide4662"
       inkscape:locked="false" />
    <sodipodi:guide
       position="42.716015,-0.70991886"
       orientation="1,0"
       id="guide4664"
       inkscape:locked="false" />
    <sodipodi:guide
       position="55.416024,71.49732"
       orientation="0,1"
       id="guide4681"
       inkscape:locked="false" />
  </sodipodi:namedview>
  <metadata
     id="metadata5">
    <rdf:RDF>
      <cc:Work
         rdf:about="">
        <dc:format>image/svg+xml</dc:format>
        <dc:type
           rdf:resource="http://purl.org/dc/dcmitype/StillImage" />
        <dc:title />
      </cc:Work>
    </rdf:RDF>
  </metadata>
  <g
     inkscape:label="Layer 1"
     inkscape:groupmode="layer"
     id="layer1"
     transform="translate(396.20309,6.5833092)">
    <rect
       style="opacity:1;fill:#ffffff;fill-opacity:0;stroke:none;stroke-width:1.61559749;stroke-linecap:butt;stroke-linejoin:round;stroke-miterlimit:4;stroke-dasharray:none;stroke-dashoffset:0;stroke-opacity:1;paint-order:normal"
       id="rect1447-9-7"
       width="27.177999"
       height="27.177999"
       x="-396.20309"
       y="22.198002"
       inkscape:export-filename="C:\Users\Ian_Anthony\Dropbox\Projects\Programming\Chess background\n.png"
       inkscape:export-xdpi="27.102806"
       inkscape:export-ydpi="27.102806" />
    <rect
       style="opacity:1;fill:#ffffff;fill-opacity:0;stroke:none;stroke-width:1.61559749;stroke-linecap:butt;stroke-linejoin:round;stroke-miterlimit:4;stroke-dasharray:none;stroke-dashoffset:0;stroke-opacity:1;paint-order:normal"
       id="rect1447-9-4"
       width="27.177999"
       height="27.177999"
       x="-366.95657"
       y="22.228193"
       inkscape:export-filename="E:\Dropbox\Projects\Programming\Chess background\pieces\q.png"
       inkscape:export-xdpi="27.102806"
       inkscape:export-ydpi="27.102806" />
    <rect
       style="opacity:1;fill:#ffffff;fill-opacity:0;stroke:none;stroke-width:1.61559749;stroke-linecap:butt;stroke-linejoin:round;stroke-miterlimit:4;stroke-dasharray:none;stroke-dashoffset:0;stroke-opacity:1;paint-order:normal"
       id="rect1447-9-75"
       width="27.177999"
       height="27.177999"
       x="-367.07608"
       y="51.325012"
       inkscape:export-filename="C:\Users\Ian_Anthony\Dropbox\Projects\Programming\Chess background\n.png"
       inkscape:export-xdpi="27.102806"
       inkscape:export-ydpi="27.102806" />
    <rect
       style="opacity:1;fill:#ffffff;fill-opacity:0;stroke:none;stroke-width:1.61559749;stroke-linecap:butt;stroke-linejoin:round;stroke-miterlimit:4;stroke-dasharray:none;stroke-dashoffset:0;stroke-opacity:1;paint-order:normal"
       id="rect1447-9-0"
       width="27.177999"
       height="27.177999"
       x="-396.20309"
       y="51.325012"
       inkscape:export-filename="C:\Users\Ian_Anthony\Dropbox\Projects\Programming\Chess background\n.png"
       inkscape:export-xdpi="27.102804"
       inkscape:export-ydpi="27.102804" />
    <rect
       style="opacity:1;fill:#ffffff;fill-opacity:0;stroke:none;stroke-width:1.61559749;stroke-linecap:butt;stroke-linejoin:round;stroke-miterlimit:4;stroke-dasharray:none;stroke-dashoffset:0;stroke-opacity:1;paint-order:normal"
       id="rect1447-9-6"
       width="27.177999"
       height="27.177999"
       x="-396.20309"
       y="-6.5833092"
       inkscape:export-filename="E:\Dropbox\Projects\Programming\Chess background\pieces\r.png"
       inkscape:export-xdpi="27.102804"
       inkscape:export-ydpi="27.102804" />
    <path
       style="fill:#000000;fill-opacity:1;stroke:none;stroke-width:1.00157475;stroke-linecap:round;stroke-miterlimit:4;stroke-dasharray:3.00472433, 3.00472433;stroke-dashoffset:0;stroke-opacity:1"
       d="m -1463.4824,-6.9101562 c -2.8686,0 -5.1778,2.3091426 -5.1778,5.1777343 v 9.2988281 3.3027348 c 0,1.075848 0.3254,2.072192 0.8829,2.898437 0,0 0,0.002 0,0.002 0.5572,0.825654 1.3478,1.481212 2.2773,1.873047 0.155,0.06533 0.3122,0.123549 0.4746,0.173828 0.4876,0.151219 1.0064,0.230469 1.5449,0.230469 h 35.0879 v 0 c 0.1787,-6.8e-5 0.3576,-0.008 0.5312,-0.02539 0.5229,-0.05299 1.0239,-0.183116 1.4883,-0.378906 0.9288,-0.391912 1.7185,-1.049818 2.2754,-1.875 0.5573,-0.826245 0.8828,-1.822589 0.8828,-2.898437 V 7.5664062 -1.7324219 c 0,-2.868589 -2.3092,-5.1777343 -5.1777,-5.1777343 -2.8686,0 -5.1778,2.3091453 -5.1778,5.1777343 v 4.1191407 h -7.1894 v -4.1191407 c 0,-2.8685905 -2.3092,-5.1777343 -5.1777,-5.1777343 -2.8686,0 -5.1797,2.3091434 -5.1797,5.1777343 v 4.1191407 h -7.1875 v -4.1191407 c 0,-2.868592 -2.3111,-5.1777344 -5.1797,-5.1777343 z m 1.4726,27.6074222 -5.6679,27.769531 h 43.6601 l -5.6699,-27.769531 z m -8.4199,32.75 c -4.9217,0 -8.8848,3.961111 -8.8848,8.882812 v 6.884766 h 66.4278 v -6.884766 c 0,-4.921701 -3.9611,-8.882812 -8.8828,-8.882812 z"
       transform="scale(0.26458333)"
       id="rect823"
       inkscape:export-filename="E:\Dropbox\Projects\Programming\Chess background\pieces\r.png"
       inkscape:export-xdpi="27.102804"
       inkscape:export-ydpi="27.102804"
       inkscape:connector-curvature="0" />
    <rect
       style="opacity:1;fill:#ffffff;fill-opacity:0;stroke:none;stroke-width:1.61559737;stroke-linecap:butt;stroke-linejoin:round;stroke-miterlimit:4;stroke-dasharray:none;stroke-dashoffset:0;stroke-opacity:1;paint-order:normal"
       id="rect1447-9"
       width="27.177999"
       height="27.177999"
       x="-367.07608"
       y="-6.5833044"
       inkscape:export-filename="E:\Dropbox\Projects\Programming\Chess background\pieces\n.png"
       inkscape:export-xdpi="27.102806"
       inkscape:export-ydpi="27.102806" />
    <path
       style="opacity:1;fill:#000000;fill-opacity:1;stroke:none;stroke-width:1.32283461;stroke-linecap:butt;stroke-linejoin:round;stroke-miterlimit:4;stroke-dasharray:none;stroke-dashoffset:0;stroke-opacity:1;paint-order:normal"
       d="m -1347.3105,-15.552734 c -0.8157,0 -1.3497,1.109375 -1.3497,1.109375 l -1.3496,2.33789 -1.3515,2.339844 -1.3496,2.3378906 -3.6192,3.6601563 -0.3633,0.3671875 v 0.023437 a 12.946428,12.946428 0 0 0 -3.0293,5.2441406 l -0.01,-0.00977 -2.502,5.8144531 -8.3476,13.8925779 a 6.6071428,6.6071428 0 0 0 -0.2246,0.375 l -0.022,0.03516 v 0.002 a 6.6071428,6.6071428 0 0 0 -0.7734,3.095704 6.6071428,6.6071428 0 0 0 6.6074,6.607422 6.6071428,6.6071428 0 0 0 3.2774,-0.878907 l 0.01,0.0059 14.3653,-7.298829 -0.01,-0.01172 a 11.479673,11.479673 0 0 0 4.7285,-3.953125 v -0.002 a 11.479673,11.479673 0 0 1 0,-0.002 c 0.01,-0.01073 2.007,-2.781431 3.541,-3.080078 0.5808,-0.113079 1.2519,0.169313 1.6797,0.578125 1.1107,1.061507 1.4587,2.76706 1.6953,4.285157 0.271,1.73899 0.3241,3.646874 -0.3574,5.269531 -0.9878,2.351663 -3.1722,4.028899 -5.0879,5.712891 -2.8149,2.474309 -6.5821,3.745938 -9.2871,6.339843 -1.6885,1.619086 -3.2965,3.465295 -4.1954,5.625 -0.5433,1.305661 -0.625,4.197266 -0.625,4.197266 h 41.1602 c 4.0747,-6.236103 5.4329,-15.359146 5.7148,-25.625 -1.5461,-10.33931 -6.0838,-16.6899268 -11.1601,-22.32226565 -3.7145,-3.41586145 -7.7766,-5.44401855 -11.9649,-6.96484375 -0.4913,-0.1112389 -0.9129,-0.1930501 -1.3515,-0.2832031 0,-1.08e-5 0.02,-0.00586 0.02,-0.00586 -0.049,-0.00763 -0.09,-0.012048 -0.1387,-0.019531 -1.8195,-0.3704319 -3.2161,-0.5718129 -4.3496,-0.6679688 -2.3841,-0.4588585 -4.4702,-1.2095095 -6.4238,-3.1953127 l -0.8594,-1.488281 -1.3496,-2.33789 c 0,0 -0.5359,-1.109375 -1.3515,-1.109375 z m -11.5196,69 c -4.9217,0 -8.8847,3.961111 -8.8847,8.882812 v 6.884766 h 66.4277 v -6.884766 c 0,-4.921701 -3.9611,-8.882812 -8.8828,-8.882812 z"
       transform="scale(0.26458333)"
       id="path936"
       inkscape:export-filename="E:\Dropbox\Projects\Programming\Chess background\pieces\n.png"
       inkscape:export-xdpi="27.102806"
       inkscape:export-ydpi="27.102806"
       inkscape:connector-curvature="0" />
    <path
       style="fill:#000000;fill-opacity:1;stroke:none;stroke-width:1.00157475;stroke-linecap:round;stroke-miterlimit:4;stroke-dasharray:3.00472437, 3.00472437;stroke-dashoffset:0;stroke-opacity:1"
       d="m -1446.0996,94.533203 a 9.8174173,9.8174173 0 0 0 -9.8184,9.818357 9.8174173,9.8174173 0 0 0 2.1114,6.07617 23.322891,29.11562 0 0 0 -15.6153,27.44532 23.322891,29.11562 0 0 0 6.9199,20.67968 h 32.793 a 23.322891,29.11562 0 0 0 6.9317,-20.67968 23.322891,29.11562 0 0 0 -10.2911,-24.08008 c -6.2625,8.21942 -10.9583,16.60561 -11.039,26.91211 l -6.4297,-0.0508 c 0.1,-12.72096 6.0957,-22.73021 13.1328,-31.77344 a 9.8174173,9.8174173 0 0 0 1.1231,-4.5293 9.8174173,9.8174173 0 0 0 -9.8184,-9.818357 z m -24.3301,68.999997 c -4.9217,0 -8.8848,3.96111 -8.8848,8.88282 v 6.88476 h 66.4278 v -6.88476 c 0,-4.92171 -3.9611,-8.88282 -8.8828,-8.88282 z"
       transform="scale(0.26458333)"
       id="rect823-8"
       inkscape:connector-curvature="0"
       inkscape:export-xdpi="27.102806"
       inkscape:export-ydpi="27.102806" />
    <path
       style="fill:#000000;fill-opacity:1;stroke:none;stroke-width:1.00157475;stroke-linecap:round;stroke-miterlimit:4;stroke-dasharray:3.00472441, 3.00472441;stroke-dashoffset:0;stroke-opacity:1"
       d="m -1348.6777,91.443359 c -3.8343,0.0019 -6.9417,3.110839 -6.9414,6.945313 5e-4,3.061108 2.0053,5.760848 4.9355,6.646488 l -2.2012,26.37109 -12.6875,-16.32031 c 1.0605,-1.25361 1.6424,-2.8424 1.6426,-4.48438 -8e-4,-3.83514 -3.1102,-6.94363 -6.9453,-6.94336 -3.8351,-2.7e-4 -6.9445,3.10822 -6.9453,6.94336 -3e-4,3.83591 3.1094,6.94559 6.9453,6.94532 l 12.7227,41.00585 h 22.5898 22.5898 l 12.7227,-41.00585 c 3.8359,2.7e-4 6.9456,-3.10941 6.9453,-6.94532 -8e-4,-3.83514 -3.1102,-6.94363 -6.9453,-6.94336 -3.8351,-2.7e-4 -6.9445,3.10822 -6.9453,6.94336 2e-4,1.64197 0.5821,3.23076 1.6426,4.48438 l -12.6875,16.32031 -2.2012,-26.37109 c 2.9302,-0.88565 4.935,-3.58539 4.9355,-6.646488 3e-4,-3.835117 -3.1082,-6.944485 -6.9433,-6.945313 -3.8359,-2.76e-4 -6.9456,3.109414 -6.9453,6.945313 0,2.323338 1.1664,4.491588 3.1015,5.777348 h -0.01 l -9.2618,25.45507 -9.2597,-25.45507 h -0.01 c 1.9352,-1.28575 3.0992,-3.454 3.1016,-5.777348 3e-4,-3.835241 -3.1084,-6.944521 -6.9434,-6.945313 z m -11.6661,72.089841 c -4.9217,0 -8.8847,3.96111 -8.8847,8.88282 v 6.88476 h 66.4277 v -6.88476 c 0,-4.92171 -3.9611,-8.88282 -8.8828,-8.88282 z"
       transform="scale(0.26458333)"
       id="rect823-8-4"
       inkscape:export-filename="E:\Dropbox\Projects\Programming\Chess background\pieces\q.png"
       inkscape:export-xdpi="27.102806"
       inkscape:export-ydpi="27.102806"
       inkscape:connector-curvature="0" />
    <path
       style="opacity:1;fill:#000000;fill-opacity:1;stroke:none;stroke-width:6.42519665;stroke-linecap:butt;stroke-linejoin:round;stroke-miterlimit:4;stroke-dasharray:none;stroke-dashoffset:0;stroke-opacity:1;paint-order:normal"
       d="m -1450.9336,201.5293 v 6.89843 h -7.1953 v 9.66993 h 7.1953 v 0.8789 l -0.791,3.32227 c -0.2593,1.01055 -0.8193,2.69201 -1.7988,2.91406 -1.3542,0.30701 -3.6469,-0.43506 -5.252,-1.05078 a 18.660714,18.660714 0 0 0 -1.4785,-0.5918 c -0.064,-0.0291 -0.2676,-0.11718 -0.2676,-0.11719 l -0.01,0.0176 a 18.660714,18.660714 0 0 0 -5.9512,-0.99414 18.660714,18.660714 0 0 0 -18.6602,18.66211 18.660714,18.660714 0 0 0 3.5196,10.86524 l -0.024,0.01 c 0.1765,0.23978 0.3591,0.47575 0.5371,0.71485 a 18.660714,18.660714 0 0 0 0.012,0.0137 c 5.1408,6.89895 10.9002,13.45832 14.9473,15.89648 h 3.1953 15.5196 1.3359 1.3359 15.5196 3.1953 c 4.0471,-2.43816 9.8064,-8.99753 14.9472,-15.89648 a 18.660714,18.660714 0 0 0 0.012,-0.0137 c 0.178,-0.2391 0.3605,-0.47507 0.5371,-0.71485 l -0.024,-0.01 a 18.660714,18.660714 0 0 0 3.5196,-10.86524 18.660714,18.660714 0 0 0 -18.6602,-18.66211 18.660714,18.660714 0 0 0 -5.9512,0.99414 l -0.012,-0.0176 c 0,0 -0.2017,0.0881 -0.2656,0.11719 a 18.660714,18.660714 0 0 0 -1.4805,0.5918 c -1.6051,0.61572 -3.8977,1.35779 -5.2519,1.05078 -0.9795,-0.22205 -1.5376,-1.90351 -1.7969,-2.91406 l -0.793,-3.32227 v -0.8789 h 7.1973 v -9.66993 h -7.1973 v -6.89843 h -4.832 z m -11.7519,35.41211 v 0 c 0.8648,0.003 1.7212,0.18799 2.5098,0.54297 v -0.004 l 0.3711,0.18555 c 0.026,0.0136 0.055,0.0272 0.082,0.041 l 6.3203,3.16406 v 14.10547 c 0,0 -5.898,0.20213 -6.6523,0 -1.367,-0.78918 -6.7051,-7.2539 -6.7051,-7.2539 -0.3152,-0.27803 -0.5995,-0.58757 -0.8516,-0.92383 l -0.035,-0.0391 v -0.006 c -0.7819,-1.05742 -1.205,-2.33728 -1.2071,-3.65235 4e-4,-3.40138 2.7572,-6.15878 6.1583,-6.16015 z m 33.166,0 v 0 c 3.4011,0.001 6.1579,2.75878 6.1582,6.16015 0,1.31507 -0.4251,2.59493 -1.207,3.65235 v 0.006 l -0.033,0.0391 c -0.2521,0.33626 -0.5382,0.64581 -0.8535,0.92383 0,0 -5.3362,6.46472 -6.7031,7.2539 -0.7544,0.20213 -6.6504,0 -6.6504,0 v -14.10547 l 6.3203,-3.16406 c 0.026,-0.014 0.055,-0.0276 0.082,-0.041 l 0.3692,-0.18555 v 0.004 c 0.7885,-0.35501 1.643,-0.54 2.5078,-0.54297 z m -40.9102,36.67773 c -4.9217,0 -8.8848,3.96111 -8.8848,8.88281 v 6.88477 h 66.4278 v -6.88477 c 0,-4.9217 -3.9611,-8.88281 -8.8828,-8.88281 z"
       transform="scale(0.26458333)"
       id="rect1278"
       inkscape:connector-curvature="0"
       inkscape:export-xdpi="27.102804"
       inkscape:export-ydpi="27.102804" />
    <path
       style="fill:#000000;fill-opacity:1;stroke:none;stroke-width:1.00157475;stroke-linecap:round;stroke-miterlimit:4;stroke-dasharray:3.00472445, 3.00472445;stroke-dashoffset:0;stroke-opacity:1"
       d="m -1336.0117,213.74414 a 13.005714,13.005714 0 0 0 -13.0059,13.00391 13.005714,13.005714 0 0 0 6.4238,11.18554 l -9.8261,7.12696 1.2011,5.02148 h 7.6172 c -4e-4,3.38633 0.1803,6.79299 -0.7207,9.11328 -2.4073,6.1995 -7.1797,5.78729 -7.1797,9.62891 h 15.4903 15.4902 c 0,-3.84162 -4.7724,-3.4294 -7.1797,-9.62891 -0.9009,-2.32017 -0.7207,-5.72656 -0.7207,-9.11328 h 7.6172 l 1.2012,-5.02148 -9.8164,-7.11914 a 13.005714,13.005714 0 0 0 6.4121,-11.19336 13.005714,13.005714 0 0 0 -13.0039,-13.00391 z m -18.3321,59.875 c -4.9217,0 -7.5117,4.1565 -8.8847,8.88281 v 6.88477 h 54.4277 v -6.88477 c 0,-4.9217 -3.9611,-8.88281 -8.8828,-8.88281 z"
       transform="scale(0.26458333)"
       id="rect823-8-4-6"
       inkscape:connector-curvature="0"
       inkscape:export-xdpi="27.102806"
       inkscape:export-ydpi="27.102806" />
  </g>
</svg>
